<svg xmlns="http://www.w3.org/2000/svg" width="718.025" height="308.51" viewBox="0 0 718.025 308.51"><g fill="none" stroke-linejoin="round" stroke-dasharray="8 2"><path d="M0,0H718.026V308.51s-179.635-45.066-359.141-45.066S0,308.51,0,308.51Z" stroke="none"/><path d="M 10 3.0517578125e-05 L 18 3.0517578125e-05 L 18 1.000030517578125 L 10 1.000030517578125 L 10 3.0517578125e-05 Z M 20 3.0517578125e-05 L 28 3.0517578125e-05 L 28 1.000030517578125 L 20 1.000030517578125 L 20 3.0517578125e-05 Z M 30 3.0517578125e-05 L 38 3.0517578125e-05 L 38 1.000030517578125 L 30 1.000030517578125 L 30 3.0517578125e-05 Z M 40 3.0517578125e-05 L 48 3.0517578125e-05 L 48 1.000030517578125 L 40 1.000030517578125 L 40 3.0517578125e-05 Z M 50 3.0517578125e-05 L 58 3.0517578125e-05 L 58 1.000030517578125 L 50 1.000030517578125 L 50 3.0517578125e-05 Z M 60 3.0517578125e-05 L 68 3.0517578125e-05 L 68 1.000030517578125 L 60 1.000030517578125 L 60 3.0517578125e-05 Z M 70 3.0517578125e-05 L 78 3.0517578125e-05 L 78 1.000030517578125 L 70 1.000030517578125 L 70 3.0517578125e-05 Z M 80 3.0517578125e-05 L 88 3.0517578125e-05 L 88 1.000030517578125 L 80 1.000030517578125 L 80 3.0517578125e-05 Z M 90 3.0517578125e-05 L 98 3.0517578125e-05 L 98 1.000030517578125 L 90 1.000030517578125 L 90 3.0517578125e-05 Z M 100 3.0517578125e-05 L 108 3.0517578125e-05 L 108 1.000030517578125 L 100 1.000030517578125 L 100 3.0517578125e-05 Z M 110 3.0517578125e-05 L 118 3.0517578125e-05 L 118 1.000030517578125 L 110 1.000030517578125 L 110 3.0517578125e-05 Z M 120 3.0517578125e-05 L 128 3.0517578125e-05 L 128 1.000030517578125 L 120 1.000030517578125 L 120 3.0517578125e-05 Z M 130 3.0517578125e-05 L 138 3.0517578125e-05 L 138 1.000030517578125 L 130 1.000030517578125 L 130 3.0517578125e-05 Z M 140 3.0517578125e-05 L 148 3.0517578125e-05 L 148 1.000030517578125 L 140 1.000030517578125 L 140 3.0517578125e-05 Z M 150 3.0517578125e-05 L 158 3.0517578125e-05 L 158 1.000030517578125 L 150 1.000030517578125 L 150 3.0517578125e-05 Z M 160 3.0517578125e-05 L 168 3.0517578125e-05 L 168 1.000030517578125 L 160 1.000030517578125 L 160 3.0517578125e-05 Z M 170 3.0517578125e-05 L 178 3.0517578125e-05 L 178 1.000030517578125 L 170 1.000030517578125 L 170 3.0517578125e-05 Z M 180 3.0517578125e-05 L 188 3.0517578125e-05 L 188 1.000030517578125 L 180 1.000030517578125 L 180 3.0517578125e-05 Z M 190 3.0517578125e-05 L 198 3.0517578125e-05 L 198 1.000030517578125 L 190 1.000030517578125 L 190 3.0517578125e-05 Z M 200 3.0517578125e-05 L 208 3.0517578125e-05 L 208 1.000030517578125 L 200 1.000030517578125 L 200 3.0517578125e-05 Z M 210 3.0517578125e-05 L 218 3.0517578125e-05 L 218 1.000030517578125 L 210 1.000030517578125 L 210 3.0517578125e-05 Z M 220 3.0517578125e-05 L 228 3.0517578125e-05 L 228 1.000030517578125 L 220 1.000030517578125 L 220 3.0517578125e-05 Z M 230 3.0517578125e-05 L 238 3.0517578125e-05 L 238 1.000030517578125 L 230 1.000030517578125 L 230 3.0517578125e-05 Z M 240 3.0517578125e-05 L 248 3.0517578125e-05 L 248 1.000030517578125 L 240 1.000030517578125 L 240 3.0517578125e-05 Z M 250 3.0517578125e-05 L 258 3.0517578125e-05 L 258 1.000030517578125 L 250 1.000030517578125 L 250 3.0517578125e-05 Z M 260 3.0517578125e-05 L 268 3.0517578125e-05 L 268 1.000030517578125 L 260 1.000030517578125 L 260 3.0517578125e-05 Z M 270 3.0517578125e-05 L 278 3.0517578125e-05 L 278 1.000030517578125 L 270 1.000030517578125 L 270 3.0517578125e-05 Z M 280 3.0517578125e-05 L 288 3.0517578125e-05 L 288 1.000030517578125 L 280 1.000030517578125 L 280 3.0517578125e-05 Z M 290 3.0517578125e-05 L 298 3.0517578125e-05 L 298 1.000030517578125 L 290 1.000030517578125 L 290 3.0517578125e-05 Z M 300 3.0517578125e-05 L 308 3.0517578125e-05 L 308 1.000030517578125 L 300 1.000030517578125 L 300 3.0517578125e-05 Z M 310 3.0517578125e-05 L 318 3.0517578125e-05 L 318 1.000030517578125 L 310 1.000030517578125 L 310 3.0517578125e-05 Z M 320 3.0517578125e-05 L 328 3.0517578125e-05 L 328 1.000030517578125 L 320 1.000030517578125 L 320 3.0517578125e-05 Z M 330 3.0517578125e-05 L 338 3.0517578125e-05 L 338 1.000030517578125 L 330 1.000030517578125 L 330 3.0517578125e-05 Z M 340 3.0517578125e-05 L 348 3.0517578125e-05 L 348 1.000030517578125 L 340 1.000030517578125 L 340 3.0517578125e-05 Z M 350 3.0517578125e-05 L 358 3.0517578125e-05 L 358 1.000030517578125 L 350 1.000030517578125 L 350 3.0517578125e-05 Z M 360 3.0517578125e-05 L 368 3.0517578125e-05 L 368 1.000030517578125 L 360 1.000030517578125 L 360 3.0517578125e-05 Z M 370 3.0517578125e-05 L 378 3.0517578125e-05 L 378 1.000030517578125 L 370 1.000030517578125 L 370 3.0517578125e-05 Z M 380 3.0517578125e-05 L 388 3.0517578125e-05 L 388 1.000030517578125 L 380 1.000030517578125 L 380 3.0517578125e-05 Z M 390 3.0517578125e-05 L 398 3.0517578125e-05 L 398 1.000030517578125 L 390 1.000030517578125 L 390 3.0517578125e-05 Z M 400 3.0517578125e-05 L 408 3.0517578125e-05 L 408 1.000030517578125 L 400 1.000030517578125 L 400 3.0517578125e-05 Z M 410 3.0517578125e-05 L 418 3.0517578125e-05 L 418 1.000030517578125 L 410 1.000030517578125 L 410 3.0517578125e-05 Z M 420 3.0517578125e-05 L 428 3.0517578125e-05 L 428 1.000030517578125 L 420 1.000030517578125 L 420 3.0517578125e-05 Z M 430 3.0517578125e-05 L 438 3.0517578125e-05 L 438 1.000030517578125 L 430 1.000030517578125 L 430 3.0517578125e-05 Z M 440 3.0517578125e-05 L 448 3.0517578125e-05 L 448 1.000030517578125 L 440 1.000030517578125 L 440 3.0517578125e-05 Z M 450 3.0517578125e-05 L 458 3.0517578125e-05 L 458 1.000030517578125 L 450 1.000030517578125 L 450 3.0517578125e-05 Z M 460 3.0517578125e-05 L 468 3.0517578125e-05 L 468 1.000030517578125 L 460 1.000030517578125 L 460 3.0517578125e-05 Z M 470 3.0517578125e-05 L 478 3.0517578125e-05 L 478 1.000030517578125 L 470 1.000030517578125 L 470 3.0517578125e-05 Z M 480 3.0517578125e-05 L 488 3.0517578125e-05 L 488 1.000030517578125 L 480 1.000030517578125 L 480 3.0517578125e-05 Z M 490 3.0517578125e-05 L 498 3.0517578125e-05 L 498 1.000030517578125 L 490 1.000030517578125 L 490 3.0517578125e-05 Z M 500 3.0517578125e-05 L 508 3.0517578125e-05 L 508 1.000030517578125 L 500 1.000030517578125 L 500 3.0517578125e-05 Z M 510 3.0517578125e-05 L 518 3.0517578125e-05 L 518 1.000030517578125 L 510 1.000030517578125 L 510 3.0517578125e-05 Z M 520 3.0517578125e-05 L 528 3.0517578125e-05 L 528 1.000030517578125 L 520 1.000030517578125 L 520 3.0517578125e-05 Z M 530 3.0517578125e-05 L 538 3.0517578125e-05 L 538 1.000030517578125 L 530 1.000030517578125 L 530 3.0517578125e-05 Z M 540 3.0517578125e-05 L 548 3.0517578125e-05 L 548 1.000030517578125 L 540 1.000030517578125 L 540 3.0517578125e-05 Z M 550 3.0517578125e-05 L 558 3.0517578125e-05 L 558 1.000030517578125 L 550 1.000030517578125 L 550 3.0517578125e-05 Z M 560 3.0517578125e-05 L 568 3.0517578125e-05 L 568 1.000030517578125 L 560 1.000030517578125 L 560 3.0517578125e-05 Z M 570 3.0517578125e-05 L 578 3.0517578125e-05 L 578 1.000030517578125 L 570 1.000030517578125 L 570 3.0517578125e-05 Z M 580 3.0517578125e-05 L 588 3.0517578125e-05 L 588 1.000030517578125 L 580 1.000030517578125 L 580 3.0517578125e-05 Z M 590 3.0517578125e-05 L 598 3.0517578125e-05 L 598 1.000030517578125 L 590 1.000030517578125 L 590 3.0517578125e-05 Z M 600 3.0517578125e-05 L 608 3.0517578125e-05 L 608 1.000030517578125 L 600 1.000030517578125 L 600 3.0517578125e-05 Z M 610 3.0517578125e-05 L 618 3.0517578125e-05 L 618 1.000030517578125 L 610 1.000030517578125 L 610 3.0517578125e-05 Z M 620 3.0517578125e-05 L 628 3.0517578125e-05 L 628 1.000030517578125 L 620 1.000030517578125 L 620 3.0517578125e-05 Z M 630 3.0517578125e-05 L 638 3.0517578125e-05 L 638 1.000030517578125 L 630 1.000030517578125 L 630 3.0517578125e-05 Z M 640 3.0517578125e-05 L 648 3.0517578125e-05 L 648 1.000030517578125 L 640 1.000030517578125 L 640 3.0517578125e-05 Z M 650 3.0517578125e-05 L 658 3.0517578125e-05 L 658 1.000030517578125 L 650 1.000030517578125 L 650 3.0517578125e-05 Z M 660 3.0517578125e-05 L 668 3.0517578125e-05 L 668 1.000030517578125 L 660 1.000030517578125 L 660 3.0517578125e-05 Z M 670 3.0517578125e-05 L 678 3.0517578125e-05 L 678 1.000030517578125 L 670 1.000030517578125 L 670 3.0517578125e-05 Z M 680 3.0517578125e-05 L 688 3.0517578125e-05 L 688 1.000030517578125 L 680 1.000030517578125 L 680 3.0517578125e-05 Z M 690 3.0517578125e-05 L 698 3.0517578125e-05 L 698 1.000030517578125 L 690 1.000030517578125 L 690 3.0517578125e-05 Z M 700 3.0517578125e-05 L 708 3.0517578125e-05 L 708 1.000030517578125 L 700 1.000030517578125 L 700 3.0517578125e-05 Z M 710 3.0517578125e-05 L 718 3.0517578125e-05 L 718 1.000030517578125 L 710 1.000030517578125 L 710 3.0517578125e-05 Z M 717.0261840820313 1.973846435546875 L 718.0261840820313 1.973846435546875 C 718.0261840820313 1.973846435546875 718.0261840820313 9.973846435546875 718.0261840820313 9.973846435546875 L 717.0261840820313 9.973846435546875 L 717.0261840820313 1.973846435546875 Z M 717.0261840820313 11.97384643554688 L 718.0261840820313 11.97384643554688 C 718.0261840820313 11.97384643554688 718.0261840820313 19.97384643554688 718.0261840820313 19.97384643554688 L 717.0261840820313 19.97384643554688 L 717.0261840820313 11.97384643554688 Z M 717.0261840820313 21.97384643554688 L 718.0261840820313 21.97384643554688 C 718.0261840820313 21.97384643554688 718.0261840820313 29.97384643554688 718.0261840820313 29.97384643554688 L 717.0261840820313 29.97384643554688 L 717.0261840820313 21.97384643554688 Z M 717.0261840820313 31.97384643554688 L 718.0261840820313 31.97384643554688 C 718.0261840820313 31.97384643554688 718.0261840820313 39.97384643554688 718.0261840820313 39.97384643554688 L 717.0261840820313 39.97384643554688 L 717.0261840820313 31.97384643554688 Z M 717.0261840820313 41.97384643554688 L 718.0261840820313 41.97384643554688 C 718.0261840820313 41.97384643554688 718.0261840820313 49.97384643554688 718.0261840820313 49.97384643554688 L 717.0261840820313 49.97384643554688 L 717.0261840820313 41.97384643554688 Z M 717.0261840820313 51.97384643554688 L 718.0261840820313 51.97384643554688 C 718.0261840820313 51.97384643554688 718.0261840820313 59.97384643554688 718.0261840820313 59.97384643554688 L 717.0261840820313 59.97384643554688 L 717.0261840820313 51.97384643554688 Z M 717.0261840820313 61.97384643554688 L 718.0261840820313 61.97384643554688 C 718.0261840820313 61.97384643554688 718.0261840820313 69.97384643554688 718.0261840820313 69.97384643554688 L 717.0261840820313 69.97384643554688 L 717.0261840820313 61.97384643554688 Z M 717.0261840820313 71.97384643554688 L 718.0261840820313 71.97384643554688 C 718.0261840820313 71.97384643554688 718.0261840820313 79.97384643554688 718.0261840820313 79.97384643554688 L 717.0261840820313 79.97384643554688 L 717.0261840820313 71.97384643554688 Z M 717.0261840820313 81.97384643554688 L 718.0261840820313 81.97384643554688 C 718.0261840820313 81.97384643554688 718.0261840820313 89.97384643554688 718.0261840820313 89.97384643554688 L 717.0261840820313 89.97384643554688 L 717.0261840820313 81.97384643554688 Z M 717.0261840820313 91.97384643554688 L 718.0261840820313 91.97384643554688 C 718.0261840820313 91.97384643554688 718.0261840820313 99.97384643554688 718.0261840820313 99.97384643554688 L 717.0261840820313 99.97384643554688 L 717.0261840820313 91.97384643554688 Z M 717.0261840820313 101.9738464355469 L 718.0261840820313 101.9738464355469 C 718.0261840820313 101.9738464355469 718.0261840820313 109.9738464355469 718.0261840820313 109.9738464355469 L 717.0261840820313 109.9738464355469 L 717.0261840820313 101.9738464355469 Z M 717.0261840820313 111.9738464355469 L 718.0261840820313 111.9738464355469 C 718.0261840820313 111.9738464355469 718.0261840820313 119.9738464355469 718.0261840820313 119.9738464355469 L 717.0261840820313 119.9738464355469 L 717.0261840820313 111.9738464355469 Z M 717.0261840820313 121.9738464355469 L 718.0261840820313 121.9738464355469 C 718.0261840820313 121.9738464355469 718.0261840820313 129.9738464355469 718.0261840820313 129.9738464355469 L 717.0261840820313 129.9738464355469 L 717.0261840820313 121.9738464355469 Z M 717.0261840820313 131.9738464355469 L 718.0261840820313 131.9738464355469 C 718.0261840820313 131.9738464355469 718.0261840820313 139.9738464355469 718.0261840820313 139.9738464355469 L 717.0261840820313 139.9738464355469 L 717.0261840820313 131.9738464355469 Z M 717.0261840820313 141.9738464355469 L 718.0261840820313 141.9738464355469 C 718.0261840820313 141.9738464355469 718.0261840820313 149.9738464355469 718.0261840820313 149.9738464355469 L 717.0261840820313 149.9738464355469 L 717.0261840820313 141.9738464355469 Z M 717.0261840820313 151.9738464355469 L 718.0261840820313 151.9738464355469 C 718.0261840820313 151.9738464355469 718.0261840820313 159.9738464355469 718.0261840820313 159.9738464355469 L 717.0261840820313 159.9738464355469 L 717.0261840820313 151.9738464355469 Z M 717.0261840820313 161.9738464355469 L 718.0261840820313 161.9738464355469 C 718.0261840820313 161.9738464355469 718.0261840820313 169.9738464355469 718.0261840820313 169.9738464355469 L 717.0261840820313 169.9738464355469 L 717.0261840820313 161.9738464355469 Z M 717.0261840820313 171.9738464355469 L 718.0261840820313 171.9738464355469 C 718.0261840820313 171.9738464355469 718.0261840820313 179.9738464355469 718.0261840820313 179.9738464355469 L 717.0261840820313 179.9738464355469 L 717.0261840820313 171.9738464355469 Z M 717.0261840820313 181.9738464355469 L 718.0261840820313 181.9738464355469 C 718.0261840820313 181.9738464355469 718.0261840820313 189.9738464355469 718.0261840820313 189.9738464355469 L 717.0261840820313 189.9738464355469 L 717.0261840820313 181.9738464355469 Z M 717.0261840820313 191.9738464355469 L 718.0261840820313 191.9738464355469 C 718.0261840820313 191.9738464355469 718.0261840820313 199.9738464355469 718.0261840820313 199.9738464355469 L 717.0261840820313 199.9738464355469 L 717.0261840820313 191.9738464355469 Z M 717.0261840820313 201.9738464355469 L 718.0261840820313 201.9738464355469 C 718.0261840820313 201.9738464355469 718.0261840820313 209.9738464355469 718.0261840820313 209.9738464355469 L 717.0261840820313 209.9738464355469 L 717.0261840820313 201.9738464355469 Z M 717.0261840820313 211.9738464355469 L 718.0261840820313 211.9738464355469 C 718.0261840820313 211.9738464355469 718.0261840820313 219.9738464355469 718.0261840820313 219.9738464355469 L 717.0261840820313 219.9738464355469 L 717.0261840820313 211.9738464355469 Z M 717.0261840820313 221.9738464355469 L 718.0261840820313 221.9738464355469 C 718.0261840820313 221.9738464355469 718.0261840820313 229.9738464355469 718.0261840820313 229.9738464355469 L 717.0261840820313 229.9738464355469 L 717.0261840820313 221.9738464355469 Z M 717.0261840820313 231.9738464355469 L 718.0261840820313 231.9738464355469 C 718.0261840820313 231.9738464355469 718.0261840820313 239.9738464355469 718.0261840820313 239.9738464355469 L 717.0261840820313 239.9738464355469 L 717.0261840820313 231.9738464355469 Z M 717.0261840820313 241.9738464355469 L 718.0261840820313 241.9738464355469 C 718.0261840820313 241.9738464355469 718.0261840820313 249.9738464355469 718.0261840820313 249.9738464355469 L 717.0261840820313 249.9738464355469 L 717.0261840820313 241.9738464355469 Z M 717.0261840820313 251.9738464355469 L 718.0261840820313 251.9738464355469 C 718.0261840820313 251.9738464355469 718.0261840820313 259.9738464355469 718.0261840820313 259.9738464355469 L 717.0261840820313 259.9738464355469 L 717.0261840820313 251.9738464355469 Z M 717.0261840820313 261.9738464355469 L 718.0261840820313 261.9738464355469 C 718.0261840820313 261.9738464355469 718.0261840820313 269.9738464355469 718.0261840820313 269.9738464355469 L 717.0261840820313 269.9738464355469 L 717.0261840820313 261.9738464355469 Z M 717.0261840820313 271.9738464355469 L 718.0261840820313 271.9738464355469 C 718.0261840820313 271.9738464355469 718.0261840820313 279.9738464355469 718.0261840820313 279.9738464355469 L 717.0261840820313 279.9738464355469 L 717.0261840820313 271.9738464355469 Z M 717.0261840820313 281.9738464355469 L 718.0261840820313 281.9738464355469 C 718.0261840820313 281.9738464355469 718.0261840820313 289.9738464355469 718.0261840820313 289.9738464355469 L 717.0261840820313 289.9738464355469 L 717.0261840820313 281.9738464355469 Z M 717.0261840820313 291.9738464355469 L 718.0261840820313 291.9738464355469 C 718.0261840820313 291.9738464355469 718.0261840820313 299.9738464355469 718.0261840820313 299.9738464355469 L 717.0261840820313 299.9738464355469 L 717.0261840820313 291.9738464355469 Z M 717.0261840820313 301.9738464355469 L 718.0261840820313 301.9738464355469 C 718.0261840820313 301.9738464355469 718.0261840820313 305.637939453125 718.0261840820313 307.4792785644531 C 718.0261840820313 307.4792785644531 718.0261840820313 307.4792785644531 718.0261840820313 307.4792785644531 L 718.0261840820313 308.5098571777344 L 718.0261840820313 308.5098571777344 C 718.0261840820313 308.5098571777344 718.0261840820313 308.5098571777344 718.0261840820313 308.5098571777344 L 718.0261840820313 308.5098571777344 L 718.0261840820313 308.5098571777344 L 718.0261840820313 308.5098571777344 C 718.0261840820313 308.5098571777344 718.0261840820313 308.5098571777344 718.0261840820313 308.5098571777344 L 718.0261840820313 308.5098571777344 C 718.0261840820313 308.5098571777344 717.5521850585938 308.3909606933594 716.6298828125 308.1656494140625 L 716.8671875 307.1942138671875 C 716.9216918945313 307.20751953125 716.9747314453125 307.2204895019531 717.0261840820313 307.2330932617188 L 717.0261840820313 301.9738464355469 Z M 707.1187133789063 304.8868408203125 C 709.9171752929688 305.5331115722656 712.5416259765625 306.1506652832031 714.919189453125 306.7223205566406 L 714.6854858398438 307.6946716308594 C 714.098876953125 307.5536193847656 713.4351806640625 307.3948669433594 712.7003784179688 307.2203369140625 C 712.6787109375 307.2151794433594 712.6570434570313 307.2100524902344 712.63525390625 307.2048645019531 C 712.6204833984375 307.2013549804688 712.6088256835938 307.1985778808594 712.5939331054688 307.195068359375 C 712.5897827148438 307.1940612792969 712.585693359375 307.193115234375 712.58154296875 307.1921081542969 C 712.5772705078125 307.1911010742188 712.5731201171875 307.1901245117188 712.56884765625 307.1891174316406 C 712.5554809570313 307.1859130859375 712.5419311523438 307.1827087402344 712.5285034179688 307.1795349121094 C 712.5177612304688 307.1769714355469 712.5072631835938 307.1744689941406 712.4965209960938 307.1719360351563 C 710.9400634765625 306.8026733398438 709.0671997070313 306.3631591796875 706.8937377929688 305.8612060546875 L 707.1187133789063 304.8868408203125 Z M 697.35498046875 302.6753845214844 C 700.01806640625 303.2676696777344 702.6450805664063 303.8604125976563 705.1630249023438 304.4371337890625 L 704.9397583007813 305.411865234375 C 704.6569213867188 305.3470764160156 704.36962890625 305.2813720703125 704.0781860351563 305.2148742675781 C 704.0648803710938 305.2118225097656 704.04443359375 305.2071533203125 704.0311279296875 305.2041320800781 C 704.0245361328125 305.20263671875 704.0180053710938 305.2011413574219 704.011474609375 305.1996459960938 C 703.9814453125 305.1927795410156 703.9574584960938 305.1873168945313 703.9273681640625 305.1804504394531 C 703.9210815429688 305.1790161132813 703.9147338867188 305.1775817871094 703.908447265625 305.1761474609375 C 702.2444458007813 304.7966003417969 700.4432983398438 304.3894958496094 698.5088500976563 303.9571533203125 C 698.5023803710938 303.9557189941406 698.49609375 303.9543151855469 698.4896240234375 303.9528503417969 C 698.4818115234375 303.9511108398438 698.481689453125 303.9510803222656 698.4739379882813 303.9493408203125 C 698.0354614257813 303.8513488769531 697.5899047851563 303.7520141601563 697.137939453125 303.6514892578125 L 697.35498046875 302.6753845214844 Z M 687.58203125 300.5376586914063 C 690.2116088867188 301.1035766601563 692.837646484375 301.676025390625 695.3870849609375 302.2392272949219 L 695.1714477539063 303.2156677246094 C 692.7443237304688 302.6795654296875 690.144775390625 302.1120910644531 687.3716430664063 301.5152893066406 L 687.58203125 300.5376586914063 Z M 677.783935546875 298.4614868164063 C 680.4049072265625 299.0083923339844 683.0367431640625 299.5643920898438 685.6063842773438 300.1138610839844 L 685.3972778320313 301.0917663574219 C 683.9122924804688 300.7742004394531 682.3773803710938 300.4482116699219 680.8029174804688 300.1163940429688 C 679.748291015625 299.8941040039063 678.6736450195313 299.6686706542969 677.5797119140625 299.4403991699219 L 677.783935546875 298.4614868164063 Z M 667.9892578125 296.4479370117188 C 670.6083374023438 296.9783935546875 673.2465209960938 297.5191345214844 675.8304443359375 298.0551147460938 L 675.6273803710938 299.0342712402344 C 674.7606811523438 298.8544921875 673.8860473632813 298.6737976074219 672.996337890625 298.49072265625 C 671.3023071289063 298.1421508789063 669.5667724609375 297.7877197265625 667.7908325195313 297.4280395507813 L 667.9892578125 296.4479370117188 Z M 658.1668090820313 294.4875793457031 C 660.7835693359375 295.0022277832031 663.4246215820313 295.5277709960938 666.016845703125 296.0496826171875 L 665.8193359375 297.0299377441406 C 663.2822875976563 296.5191345214844 660.6660766601563 295.9982299804688 657.9739379882813 295.46875 L 658.1668090820313 294.4875793457031 Z M 648.3374633789063 292.582763671875 C 650.9584350585938 293.0832214355469 653.607666015625 293.5951232910156 656.2113037109375 294.1041259765625 L 656.0193481445313 295.0855712890625 C 654.2132568359375 294.7324523925781 652.3606567382813 294.3731384277344 650.4894409179688 294.0133056640625 C 649.715087890625 293.8643798828125 648.9351806640625 293.7149047851563 648.14990234375 293.56494140625 L 648.3374633789063 292.582763671875 Z M 638.5044555664063 290.7325744628906 C 641.125732421875 291.2184753417969 643.7778930664063 291.7160339355469 646.3872680664063 292.2113952636719 L 646.2008056640625 293.19384765625 C 645.6226806640625 293.0841064453125 645.0416870117188 292.97412109375 644.4578857421875 292.8638610839844 C 644.4439086914063 292.8612365722656 644.4224243164063 292.857177734375 644.4085083007813 292.8545532226563 C 644.3947143554688 292.8519592285156 644.3806762695313 292.8493041992188 644.3668823242188 292.8466796875 C 643.8507080078125 292.7492370605469 643.3301391601563 292.6511840820313 642.8095703125 292.5533752441406 C 642.7990112304688 292.5513916015625 642.788818359375 292.5494689941406 642.7782592773438 292.5474853515625 C 642.7571411132813 292.5435180664063 642.7379150390625 292.5399169921875 642.716796875 292.5359497070313 C 641.268798828125 292.263916015625 639.8037109375 291.990478515625 638.3222045898438 291.7158508300781 L 638.5044555664063 290.7325744628906 Z M 628.6673583984375 288.9363098144531 C 631.2869262695313 289.4074096679688 633.9395751953125 289.8904113769531 636.5513916015625 290.3716735839844 L 636.3701782226563 291.3551330566406 C 633.7889404296875 290.8794555664063 631.1676025390625 290.4020080566406 628.4903564453125 289.9204711914063 L 628.6673583984375 288.9363098144531 Z M 618.8214721679688 287.1923217773438 C 621.4388427734375 287.6487731933594 624.0908203125 288.1170349121094 626.7037353515625 288.5841369628906 L 626.5277099609375 289.5685424804688 C 624.3069458007813 289.1715393066406 622.0680541992188 288.7753601074219 619.78515625 288.3757934570313 C 619.775146484375 288.3740539550781 619.7652587890625 288.372314453125 619.7551879882813 288.3705444335938 C 619.7317504882813 288.366455078125 619.7173461914063 288.3639221191406 619.69384765625 288.3598327636719 C 619.3464965820313 288.2990417480469 618.9984130859375 288.2382202148438 618.649658203125 288.1773986816406 L 618.8214721679688 287.1923217773438 Z M 608.9623413085938 285.4996643066406 C 611.5775146484375 285.9415893554688 614.228759765625 286.3952026367188 616.84228515625 286.8482055664063 L 616.6715698242188 287.83349609375 C 616.3777465820313 287.7825927734375 616.0834350585938 287.7316589355469 615.7886352539063 287.6807250976563 C 614.4630126953125 287.4516296386719 613.1210327148438 287.2211608886719 611.7760009765625 286.99169921875 C 611.7752075195313 286.9915466308594 611.774658203125 286.991455078125 611.7738037109375 286.9913330078125 C 611.7496337890625 286.9872131347656 611.7230834960938 286.982666015625 611.6989135742188 286.9785461425781 C 610.736083984375 286.8143310546875 609.7683715820313 286.6500244140625 608.7958374023438 286.4856567382813 L 608.9623413085938 285.4996643066406 Z M 599.0863037109375 283.8579406738281 C 601.7061157226563 284.2863159179688 604.3631591796875 284.7265930175781 606.983642578125 285.1664123535156 L 606.818115234375 286.1526794433594 C 605.80224609375 285.9821166992188 604.8020629882813 285.8150329589844 603.7759399414063 285.64453125 C 603.7572021484375 285.6414184570313 603.7382202148438 285.6382446289063 603.719482421875 285.6351318359375 C 603.702880859375 285.6323852539063 603.69189453125 285.6305541992188 603.6753540039063 285.6278076171875 C 602.549560546875 285.4407653808594 601.4176635742188 285.2537841796875 600.2797241210938 285.0668640136719 C 599.827880859375 284.9926452636719 599.3786010742188 284.9190063476563 598.9249267578125 284.8448486328125 L 599.0863037109375 283.8579406738281 Z M 589.207763671875 282.2696838378906 C 591.8304443359375 282.6841125488281 594.4913330078125 283.110595703125 597.11669921875 283.5369567871094 L 596.9564819335938 284.5240478515625 C 596.3197021484375 284.4206237792969 595.6812744140625 284.3172607421875 595.0408935546875 284.2139282226563 C 595.0408935546875 284.2139282226563 595.0316772460938 284.2124328613281 595.0316772460938 284.2124328613281 C 594.9654541015625 284.2017517089844 594.8992919921875 284.1910705566406 594.8330078125 284.1803894042969 C 594.8330078125 284.1803894042969 594.8247680664063 284.1790771484375 594.8247680664063 284.1790771484375 C 593.1966552734375 283.9165344238281 591.5571899414063 283.6543579101563 589.9061279296875 283.3926391601563 C 589.6215209960938 283.3475341796875 589.3369140625 283.302490234375 589.0516357421875 283.2573852539063 L 589.207763671875 282.2696838378906 Z M 579.3250122070313 280.7347717285156 C 581.9454345703125 281.1345825195313 584.6051025390625 281.5461120605469 587.2297973632813 281.9581298828125 L 587.0748291015625 282.946044921875 C 584.8062744140625 282.5899963378906 582.499755859375 282.2322998046875 580.1904296875 281.878662109375 C 579.8521728515625 281.8268432617188 579.5133666992188 281.7750549316406 579.1741943359375 281.7232971191406 L 579.3250122070313 280.7347717285156 Z M 569.418701171875 279.2508544921875 C 572.045166015625 279.6370239257813 574.7117309570313 280.0349426269531 577.3441162109375 280.4336853027344 L 577.1943359375 281.4223937988281 C 575.4473266601563 281.1577758789063 573.6710205078125 280.891357421875 571.902099609375 280.628662109375 C 571.8897705078125 280.6268310546875 571.877685546875 280.6250305175781 571.8653564453125 280.6231994628906 C 571.8383178710938 280.6191711425781 571.8009033203125 280.6136169433594 571.7738647460938 280.609619140625 C 571.749267578125 280.60595703125 571.7249755859375 280.6023559570313 571.7003784179688 280.5986938476563 C 571.6913452148438 280.5973510742188 571.6738891601563 280.5947875976563 571.6648559570313 280.5934448242188 C 571.6331787109375 280.5887451171875 571.6015014648438 280.5840454101563 571.56982421875 280.579345703125 C 571.56982421875 280.579345703125 571.5571899414063 280.5774536132813 571.5571899414063 280.5774536132813 C 571.5228881835938 280.5723876953125 571.4882202148438 280.5672302246094 571.4539184570313 280.5621643066406 C 571.4539184570313 280.5621643066406 571.4520263671875 280.5618591308594 571.4520263671875 280.5618591308594 C 570.9110107421875 280.4816589355469 570.3694458007813 280.401611328125 569.826416015625 280.3216247558594 C 569.826416015625 280.3216247558594 569.8209838867188 280.3208312988281 569.8209838867188 280.3208312988281 C 569.7913818359375 280.3164672851563 569.7615356445313 280.3120727539063 569.73193359375 280.3077087402344 C 569.7138061523438 280.3050537109375 569.712158203125 280.3047790527344 569.6939697265625 280.3021240234375 C 569.6689453125 280.2984313964844 569.644287109375 280.2947998046875 569.6192626953125 280.2911071777344 C 569.592041015625 280.287109375 569.5567016601563 280.2819213867188 569.5294799804688 280.2778930664063 C 569.5270385742188 280.2775573730469 569.5245361328125 280.2771606445313 569.5220947265625 280.2768249511719 C 569.4404296875 280.2648010253906 569.35498046875 280.2522277832031 569.2732543945313 280.2402038574219 L 569.418701171875 279.2508544921875 Z M 559.5260009765625 277.8239440917969 C 562.1507568359375 278.1952209472656 564.8159790039063 278.578125 567.4478759765625 278.9622192382813 L 567.3035278320313 279.95166015625 C 564.6866455078125 279.5698547363281 562.047119140625 279.1904907226563 559.385986328125 278.8141174316406 L 559.5260009765625 277.8239440917969 Z M 549.6064453125 276.4490356445313 C 552.2342529296875 276.8057556152344 554.9034423828125 277.17431640625 557.5397338867188 277.5442199707031 L 557.4008178710938 278.5344848632813 C 554.7845458984375 278.1674194335938 552.1282348632813 277.8005981445313 549.471923828125 277.4399108886719 L 549.6064453125 276.4490356445313 Z M 539.6956176757813 275.1316833496094 C 542.3233642578125 275.473388671875 544.9929809570313 275.8267517089844 547.6304931640625 276.1818542480469 L 547.4970092773438 277.1728515625 C 544.8720092773438 276.8194885253906 542.2283935546875 276.469482421875 539.5667114257813 276.123291015625 L 539.6956176757813 275.1316833496094 Z M 529.7613525390625 273.8686828613281 C 532.392333984375 274.1954956054688 535.0657348632813 274.5338439941406 537.7074584960938 274.8742980957031 L 537.5796508789063 275.8660888671875 C 534.9447021484375 275.5264892578125 532.306640625 275.1925048828125 529.6380615234375 274.8610229492188 L 529.7613525390625 273.8686828613281 Z M 519.8353271484375 272.6649475097656 C 522.4656982421875 272.9761352539063 525.1390991210938 273.2987670898438 527.78125 273.6238403320313 L 527.6591186523438 274.6163635253906 C 525.0217895507813 274.2918395996094 522.3858032226563 273.9736022949219 519.7178955078125 273.6580200195313 L 519.8353271484375 272.6649475097656 Z M 509.8918151855469 271.5184936523438 C 512.5247192382813 271.8140258789063 515.201171875 272.1210327148438 517.846923828125 272.4308471679688 L 517.7305297851563 273.424072265625 C 515.0951538085938 273.1154479980469 512.443359375 272.8112182617188 509.7801818847656 272.51220703125 L 509.8918151855469 271.5184936523438 Z M 499.9454345703125 270.4322204589844 C 502.5782775878906 270.7115783691406 505.2550964355469 271.0023193359375 507.9015502929688 271.2962036132813 L 507.7911987304688 272.2901306152344 C 505.8970947265625 272.0797424316406 504.0103759765625 271.8734741210938 502.1031494140625 271.6683959960938 C 502.0853271484375 271.6664733886719 502.0675659179688 271.66455078125 502.0497131347656 271.6626586914063 C 501.9888305664063 271.6560974121094 501.9340209960938 271.6502075195313 501.8731384277344 271.6436767578125 C 501.8399047851563 271.6401062011719 501.8069458007813 271.6365661621094 501.773681640625 271.6329956054688 C 501.75341796875 271.6308288574219 501.7334594726563 271.628662109375 501.713134765625 271.6264953613281 C 501.0894165039063 271.5595703125 500.4650268554688 271.492919921875 499.8399047851563 271.4265747070313 L 499.9454345703125 270.4322204589844 Z M 489.9931640625 269.4070434570313 C 492.628173828125 269.6701354980469 495.3076171875 269.9444885253906 497.957275390625 270.222412109375 L 497.8529052734375 271.2169494628906 C 497.8283996582031 271.2143859863281 497.8038330078125 271.2117919921875 497.7793273925781 271.209228515625 C 497.7487182617188 271.2060241699219 497.7369689941406 271.2047729492188 497.7063903808594 271.2015991210938 C 495.9236450195313 271.0147399902344 494.1353149414063 270.830322265625 492.3420104980469 270.6484680175781 C 492.2907104492188 270.6432495117188 492.2137145996094 270.6354675292969 492.1624145507813 270.6302490234375 C 492.1502685546875 270.6290283203125 492.1380615234375 270.6278076171875 492.1259155273438 270.6265563964844 C 491.3872375488281 270.5517578125 490.6342163085938 270.4760131835938 489.8938293457031 270.402099609375 L 489.9931640625 269.4070434570313 Z M 480.0274658203125 268.4436645507813 C 482.6641845703125 268.6901245117188 485.3459167480469 268.9475708007813 487.9981079101563 269.2090454101563 L 487.89990234375 270.2042236328125 C 485.9719543457031 270.01416015625 484.0384521484375 269.8270874023438 482.0993347167969 269.6431884765625 C 482.057861328125 269.6392517089844 481.9958801269531 269.6333618164063 481.9544067382813 269.6294555664063 C 481.9412841796875 269.6282043457031 481.9280700683594 269.626953125 481.9149169921875 269.6257019042969 C 481.2618408203125 269.5638427734375 480.5886840820313 269.50048828125 479.9343872070313 269.4393615722656 L 480.0274658203125 268.4436645507813 Z M 470.06591796875 267.54541015625 C 472.7030029296875 267.7744750976563 475.3854370117188 268.0146789550781 478.038818359375 268.2591247558594 L 477.9470825195313 269.2549438476563 C 477.874267578125 269.2482299804688 477.7979431152344 269.2412109375 477.72509765625 269.2344970703125 C 477.7010192871094 269.2322998046875 477.6770629882813 269.2300720214844 477.6529541015625 269.2278747558594 C 477.611328125 269.2240295410156 477.5692443847656 269.2201538085938 477.527587890625 269.2163391113281 C 475.0198974609375 268.9859313964844 472.5038452148438 268.760986328125 469.9793701171875 268.5415649414063 L 470.06591796875 267.54541015625 Z M 460.09326171875 266.7122192382813 C 462.7319030761719 266.9237670898438 465.4163818359375 267.1462097167969 468.0722045898438 267.3734741210938 L 467.9869079589844 268.3698120117188 C 466.4229736328125 268.2360229492188 464.8362426757813 268.1027526855469 463.266357421875 267.9734191894531 C 463.2626342773438 267.9731140136719 463.2589721679688 267.9728088378906 463.2552185058594 267.9725036621094 C 463.09716796875 267.95947265625 462.9242248535156 267.9452514648438 462.76611328125 267.9322814941406 C 462.7628784179688 267.9320068359375 462.760009765625 267.9317932128906 462.7567749023438 267.9315185546875 C 461.8397521972656 267.8562927246094 460.9323425292969 267.7826843261719 460.0133666992188 267.7090148925781 L 460.09326171875 266.7122192382813 Z M 450.1122741699219 265.9463195800781 C 452.7516479492188 266.1396789550781 455.4373779296875 266.3439331054688 458.0947265625 266.5534057617188 L 458.0161743164063 267.5502624511719 C 455.3609313964844 267.3410339355469 452.7094421386719 267.1392822265625 450.0391845703125 266.9436340332031 L 450.1122741699219 265.9463195800781 Z M 440.1323547363281 265.2502136230469 C 442.7727355957031 265.4249267578125 445.4598999023438 265.6104736328125 448.1189880371094 265.8016662597656 L 448.04736328125 266.7990417480469 C 446.9354858398438 266.7191162109375 445.8226013183594 266.6404418945313 444.7083129882813 266.5630187988281 C 444.6763000488281 266.560791015625 444.6512451171875 266.5590515136719 444.6192321777344 266.5568237304688 C 444.5921020507813 266.554931640625 444.5647277832031 266.5530395507813 444.5376281738281 266.5511474609375 C 443.0535888671875 266.4481811523438 441.5544128417969 266.3464965820313 440.0663757324219 266.2479858398438 L 440.1323547363281 265.2502136230469 Z M 430.1441040039063 264.6251220703125 C 432.7855529785156 264.78076171875 435.4740905761719 264.947021484375 438.1351928710938 265.119384765625 L 438.070556640625 266.1173095703125 C 435.4125366210938 265.9451293945313 432.7547912597656 265.7807006835938 430.0852661132813 265.6233825683594 L 430.1441040039063 264.6251220703125 Z M 420.1489868164063 264.0733947753906 C 422.7911682128906 264.2093200683594 425.4809875488281 264.3557739257813 428.1436462402344 264.5086669921875 L 428.0862731933594 265.5070190429688 C 427.5621337890625 265.4769287109375 427.0379638671875 265.4471435546875 426.513427734375 265.4176330566406 C 426.4918823242188 265.4164123535156 426.4554443359375 265.4143676757813 426.4338684082031 265.4131469726563 C 426.3867797851563 265.4105224609375 426.3395690917969 265.4078674316406 426.29248046875 265.4052124023438 C 426.227783203125 265.4015808105469 426.1650695800781 265.3980712890625 426.1003723144531 265.3944396972656 C 426.0930480957031 265.39404296875 426.0857543945313 265.3936157226563 426.0784301757813 265.3932189941406 C 424.5145263671875 265.3057250976563 422.9553833007813 265.2212219238281 421.3880920410156 265.1390686035156 C 421.3656311035156 265.1378784179688 421.3435974121094 265.13671875 421.3211364746094 265.1355590820313 C 421.26708984375 265.1327209472656 421.2239685058594 265.1304626464844 421.169921875 265.1276550292969 C 420.8125305175781 265.1089782714844 420.4552001953125 265.0904235839844 420.0976257324219 265.072021484375 L 420.1489868164063 264.0733947753906 Z M 410.154541015625 263.59765625 C 412.7972717285156 263.7132263183594 415.4880981445313 263.8392333984375 418.152099609375 263.9722290039063 L 418.1022644042969 264.970947265625 C 416.2729797363281 264.8796081542969 414.4499206542969 264.7924499511719 412.6166381835938 264.7086791992188 C 412.6112670898438 264.7084350585938 412.6060180664063 264.7081909179688 412.6006469726563 264.7079467773438 C 412.5247192382813 264.7044982910156 412.4671020507813 264.7018737792969 412.3911743164063 264.6984252929688 C 412.3726196289063 264.6975708007813 412.3543395996094 264.6967468261719 412.3357849121094 264.6958923339844 C 412.2815551757813 264.6934204101563 412.2038269042969 264.6899108886719 412.1495971679688 264.6874389648438 C 412.1287536621094 264.6864929199219 412.1078491210938 264.685546875 412.0870056152344 264.6846008300781 C 412.0327758789063 264.6821594238281 411.9703979492188 264.6793212890625 411.9161376953125 264.6768798828125 C 411.8821411132813 264.6753540039063 411.8483276367188 264.673828125 411.8143310546875 264.6723022460938 C 411.7709045410156 264.6703491210938 411.7117309570313 264.6676635742188 411.6683349609375 264.6657104492188 C 411.6361083984375 264.6642761230469 411.6038513183594 264.6628112792969 411.5716247558594 264.661376953125 C 411.5173645019531 264.658935546875 411.4739685058594 264.656982421875 411.4197082519531 264.6545715332031 C 411.3837280273438 264.6529541015625 411.3476257324219 264.6513366699219 411.3116455078125 264.6497497558594 C 411.2573852539063 264.6473083496094 411.2164001464844 264.6454772949219 411.1621398925781 264.64306640625 C 411.1295776367188 264.6416320800781 411.096923828125 264.6401672363281 411.0643615722656 264.6387329101563 C 411.0209655761719 264.6367797851563 410.9480895996094 264.633544921875 410.9046630859375 264.6316223144531 C 410.8748779296875 264.6303100585938 410.8450622558594 264.6289672851563 410.8152465820313 264.6276550292969 C 410.7501220703125 264.6247863769531 410.7065734863281 264.6228637695313 410.6414489746094 264.6199951171875 C 410.61865234375 264.6189575195313 410.5955810546875 264.6179504394531 410.5727844238281 264.616943359375 C 410.5076599121094 264.6140747070313 410.4471130371094 264.6114196777344 410.3819885253906 264.6085510253906 C 410.3652038574219 264.6078186035156 410.348388671875 264.6070861816406 410.3316345214844 264.6063537597656 C 410.2556457519531 264.6029968261719 410.1869201660156 264.6000061035156 410.1109008789063 264.5966796875 L 410.154541015625 263.59765625 Z M 400.1543579101563 263.199951171875 C 402.7976379394531 263.2944946289063 405.4895324707031 263.3994140625 408.1550903320313 263.5117492675781 L 408.1129150390625 264.5108642578125 C 407.3299865722656 264.4778442382813 406.5466003417969 264.445556640625 405.7630615234375 264.4140014648438 C 405.7304382324219 264.4126892089844 405.7098999023438 264.411865234375 405.6772766113281 264.4105529785156 C 405.6455993652344 264.4092712402344 405.6140747070313 264.4079895019531 405.5823669433594 264.40673828125 C 405.5279846191406 264.404541015625 405.4526672363281 264.4015197753906 405.3982849121094 264.3993530273438 C 405.3807373046875 264.3986511230469 405.3632202148438 264.39794921875 405.3456420898438 264.3972473144531 C 403.6055908203125 264.3276977539063 401.8613891601563 264.2616271972656 400.1185607910156 264.1992797851563 L 400.1543579101563 263.199951171875 Z M 390.1497192382813 262.8829345703125 C 392.79345703125 262.9557495117188 395.486083984375 263.0388488769531 398.1529235839844 263.1299438476563 L 398.1187438964844 264.1293640136719 C 397.5410766601563 264.109619140625 396.9575500488281 264.0901489257813 396.3796691894531 264.0712280273438 C 396.3724975585938 264.0709838867188 396.3655090332031 264.0707397460938 396.3583374023438 264.0705261230469 C 396.2929382324219 264.068359375 396.2156066894531 264.0658569335938 396.1501770019531 264.063720703125 C 396.1238403320313 264.0628662109375 396.097900390625 264.06201171875 396.0715637207031 264.0611572265625 C 396.0388488769531 264.0601196289063 395.9929504394531 264.0586242675781 395.9602355957031 264.0575561523438 C 395.8989562988281 264.0555725097656 395.8373718261719 264.0535888671875 395.7760620117188 264.0516052246094 C 395.7760620117188 264.0516052246094 395.7679443359375 264.0513305664063 395.7679443359375 264.0513305664063 C 394.6905517578125 264.0166015625 393.6125793457031 263.9833068847656 392.5343322753906 263.9514465332031 C 392.5015869140625 263.9504699707031 392.4744873046875 263.9496765136719 392.4417419433594 263.9486999511719 C 392.4065856933594 263.9476623535156 392.371337890625 263.9466247558594 392.336181640625 263.9455871582031 C 391.5939636230469 263.9237670898438 390.86474609375 263.9029846191406 390.1221923828125 263.8825378417969 L 390.1497192382813 262.8829345703125 Z M 380.144287109375 262.6494750976563 C 382.7880859375 262.6998596191406 385.4813537597656 262.7604064941406 388.149169921875 262.8294982910156 L 388.1232604980469 263.8291320800781 C 387.923583984375 263.823974609375 387.72412109375 263.81884765625 387.5244140625 263.8137817382813 C 387.5244140625 263.8137817382813 387.5074157714844 263.8133544921875 387.5074157714844 263.8133544921875 C 387.4361877441406 263.8115539550781 387.3650512695313 263.8097534179688 387.2938232421875 263.8079528808594 C 387.2610473632813 263.80712890625 387.2266540527344 263.8062744140625 387.1938781738281 263.8054504394531 C 387.1532287597656 263.804443359375 387.1128234863281 263.8034057617188 387.0721435546875 263.8023986816406 C 387.0175170898438 263.801025390625 386.9657287597656 263.7997436523438 386.9111022949219 263.7984008789063 C 386.8935241699219 263.7979431152344 386.8758544921875 263.7975158691406 386.8582763671875 263.7970581054688 C 386.7817993164063 263.795166015625 386.7181091308594 263.7936096191406 386.6416015625 263.7917175292969 C 386.6336364746094 263.7915344238281 386.6257934570313 263.7913208007813 386.6178283691406 263.7911376953125 C 386.5413208007813 263.7892456054688 386.4642333984375 263.787353515625 386.3877563476563 263.7854919433594 C 386.3810729980469 263.7853393554688 386.3743591308594 263.78515625 386.3677062988281 263.7850036621094 C 386.2911987304688 263.7831420898438 386.2077941894531 263.7811279296875 386.1313171386719 263.7792663574219 C 386.1277160644531 263.7791748046875 386.1241760253906 263.7790832519531 386.1205749511719 263.7789916992188 C 386.0440979003906 263.7771606445313 385.9583740234375 263.7750854492188 385.8818664550781 263.7732543945313 C 385.8774719238281 263.7731323242188 385.8731689453125 263.7730407714844 385.8687744140625 263.77294921875 C 385.7813415527344 263.7708435058594 385.7184448242188 263.7693481445313 385.6309814453125 263.7672729492188 C 385.6269226074219 263.7671508789063 385.6228942871094 263.7670593261719 385.6188354492188 263.7669677734375 C 385.5423278808594 263.7651672363281 385.4593811035156 263.76318359375 385.3828735351563 263.7613830566406 C 385.3770141601563 263.7612609863281 385.3710632324219 263.7611083984375 385.3652038574219 263.760986328125 C 385.2886962890625 263.7591552734375 385.2063903808594 263.7572326660156 385.1298828125 263.7554626464844 C 385.1259765625 263.75537109375 385.1220397949219 263.7552795410156 385.1181335449219 263.7551879882813 C 385.0416259765625 263.7533874511719 384.9582824707031 263.75146484375 384.8817749023438 263.7496948242188 C 384.875244140625 263.7495422363281 384.8686828613281 263.7493896484375 384.8621826171875 263.7492370605469 C 384.7856750488281 263.7474670410156 384.7082824707031 263.7456665039063 384.6317749023438 263.7439270019531 C 384.6244506835938 263.7437744140625 384.6171569824219 263.7435913085938 384.6098327636719 263.7434387207031 C 384.5442504882813 263.7419128417969 384.4606018066406 263.7400207519531 384.3949890136719 263.738525390625 C 384.3828125 263.7382507324219 384.3705444335938 263.7379760742188 384.3583679199219 263.7377014160156 C 384.2927551269531 263.7362060546875 384.2263793945313 263.7347106933594 384.1607971191406 263.7332153320313 C 384.1412658691406 263.7327880859375 384.1219482421875 263.7323608398438 384.1024169921875 263.7319030761719 C 384.0368347167969 263.7304382324219 383.9881591796875 263.7293395996094 383.9225769042969 263.7278747558594 C 383.8981628417969 263.7273559570313 383.8735656738281 263.726806640625 383.8491516113281 263.7262573242188 C 383.7944946289063 263.7250366210938 383.7256469726563 263.7235107421875 383.6709899902344 263.7222900390625 C 383.6448059082031 263.7217102050781 383.6184692382813 263.7211303710938 383.59228515625 263.7205505371094 C 383.53759765625 263.7193603515625 383.47998046875 263.7180786132813 383.4253234863281 263.7168884277344 C 383.3948669433594 263.7162170410156 383.36474609375 263.715576171875 383.3342895507813 263.7149047851563 C 383.2796325683594 263.7137145996094 383.2264709472656 263.7125549316406 383.1718139648438 263.7113647460938 C 383.1397399902344 263.7106628417969 383.107666015625 263.7099609375 383.0755920410156 263.7092895507813 C 383.0318603515625 263.7083435058594 382.9660339355469 263.7069091796875 382.9223022460938 263.7059936523438 C 382.8869934082031 263.7052307128906 382.851318359375 263.7044677734375 382.8160095214844 263.7037048339844 C 382.7613220214844 263.7025451660156 382.7298889160156 263.7018737792969 382.6752014160156 263.7007141113281 C 382.6367797851563 263.6998901367188 382.5984191894531 263.6990661621094 382.5600280761719 263.6982727050781 C 382.5162658691406 263.6973266601563 382.4899597167969 263.69677734375 382.4462280273438 263.6958618164063 C 382.4014587402344 263.6949157714844 382.3565979003906 263.6939697265625 382.3118286132813 263.6930541992188 C 382.2680969238281 263.692138671875 382.2292175292969 263.6913146972656 382.1854858398438 263.6903991699219 C 382.1431579589844 263.6895141601563 382.1007690429688 263.6886291503906 382.0584411621094 263.6877746582031 C 382.025634765625 263.6870727539063 381.9758911132813 263.6860656738281 381.9430847167969 263.6853637695313 C 381.9006042480469 263.6845092773438 381.8579711914063 263.6836242675781 381.8154907226563 263.6827392578125 C 381.771728515625 263.6818542480469 381.7212829589844 263.6808166503906 381.6775207519531 263.679931640625 C 381.6472473144531 263.6793212890625 381.6169738769531 263.6787109375 381.5867004394531 263.6780700683594 C 381.5320129394531 263.6769714355469 381.475341796875 263.6758117675781 381.420654296875 263.6747131347656 C 381.3993530273438 263.6742858886719 381.3778076171875 263.6738586425781 381.3564758300781 263.6734313964844 C 381.2908630371094 263.672119140625 381.2187194824219 263.670654296875 381.1531066894531 263.6693420410156 C 381.1389465332031 263.6690673828125 381.1246948242188 263.6687927246094 381.1105346679688 263.6684875488281 C 381.0339660644531 263.6669616699219 380.9637756347656 263.6655883789063 380.88720703125 263.6640625 C 380.8810119628906 263.6639404296875 380.8748168945313 263.663818359375 380.8686218261719 263.6636962890625 C 380.6279907226563 263.6589660644531 380.3658447265625 263.6539001464844 380.1251831054688 263.6492919921875 L 380.144287109375 262.6494750976563 Z M 370.1363525390625 262.5025024414063 C 372.7803649902344 262.5295715332031 375.4741821289063 262.5668640136719 378.1430969238281 262.613037109375 L 378.125732421875 263.6129455566406 C 376.9548645019531 263.5926208496094 375.8104553222656 263.5745239257813 374.6390991210938 263.5578308105469 C 374.6264038085938 263.5576477050781 374.6133728027344 263.5574645996094 374.6006774902344 263.5572814941406 C 374.5350036621094 263.5563354492188 374.4764404296875 263.5555114746094 374.4107666015625 263.5545654296875 C 374.3795166015625 263.5541381835938 374.3483276367188 263.5537109375 374.3170776367188 263.5532836914063 C 374.2732849121094 263.5526428222656 374.2503051757813 263.5523376464844 374.2065124511719 263.5517272949219 C 374.14111328125 263.5508117675781 374.0753784179688 263.5499267578125 374.0099487304688 263.5490112304688 C 374.0099487304688 263.5490112304688 373.9948120117188 263.5487976074219 373.9948120117188 263.5487976074219 C 372.7054443359375 263.5311279296875 371.4158935546875 263.515625 370.1260986328125 263.5024108886719 L 370.1363525390625 262.5025024414063 Z M 360.1270141601563 262.4450378417969 C 362.7708129882813 262.4480285644531 365.4649047851563 262.4611206054688 368.1344604492188 262.4836730957031 L 368.1260070800781 263.4836730957031 C 368.1227416992188 263.483642578125 368.1195068359375 263.4836120605469 368.1162719726563 263.4835815429688 C 365.4546203613281 263.4610595703125 362.7882690429688 263.4481201171875 360.1259155273438 263.4450378417969 L 360.1270141601563 262.4450378417969 Z M 358.1250915527344 262.444580078125 L 358.125732421875 263.444580078125 C 355.7920532226563 263.4462280273438 353.4662170410156 263.4554138183594 351.1330871582031 263.4720458984375 C 351.1224975585938 263.4721374511719 351.1117248535156 263.4721984863281 351.1011657714844 263.4722900390625 C 351.0573425292969 263.4725952148438 350.9961242675781 263.4730529785156 350.9523010253906 263.4733581542969 C 350.6767883300781 263.4753723144531 350.4011535644531 263.4774780273438 350.1256408691406 263.4796752929688 L 350.1176452636719 262.4797668457031 C 352.7871704101563 262.4583129882813 355.4812622070313 262.4464721679688 358.1250915527344 262.444580078125 Z M 348.1156311035156 262.4975891113281 L 348.1254577636719 263.4975891113281 C 346.7017517089844 263.5115661621094 345.3041381835938 263.5279541015625 343.8809814453125 263.54736328125 C 343.8741455078125 263.5474548339844 343.8676147460938 263.5475463867188 343.8607788085938 263.5476379394531 C 343.7841491699219 263.5486755371094 343.7153930664063 263.5496215820313 343.6387634277344 263.5506896972656 C 343.6211853027344 263.5509338378906 343.6036987304688 263.5511779785156 343.5861206054688 263.5514221191406 C 343.5423278808594 263.5520324707031 343.4798278808594 263.5528869628906 343.4360656738281 263.5534973144531 C 343.3859252929688 263.55419921875 343.3357238769531 263.5549011230469 343.2856140136719 263.5556335449219 C 343.2637023925781 263.5559387207031 343.2407531738281 263.5562438964844 343.2188415527344 263.5565795898438 C 342.1877136230469 263.5711975097656 341.1565551757813 263.5872192382813 340.1258239746094 263.6046752929688 L 340.1089172363281 262.6048583984375 C 342.7777404785156 262.5596618652344 345.4716491699219 262.523681640625 348.1156311035156 262.4975891113281 Z M 338.1076354980469 262.6404113769531 L 338.1262817382813 263.6402282714844 C 336.5168151855469 263.6702270507813 334.9080810546875 263.7035827636719 333.2999267578125 263.7402648925781 C 333.2671203613281 263.7409973144531 333.2217102050781 263.7420349121094 333.1889038085938 263.7427978515625 C 333.1526184082031 263.7436218261719 333.1166076660156 263.7444458007813 333.080322265625 263.7453002929688 C 333.0147399902344 263.7467956542969 332.9521789550781 263.7482299804688 332.8865966796875 263.749755859375 C 332.8817138671875 263.7498779296875 332.8771057128906 263.7499694824219 332.8722229003906 263.7500915527344 C 331.9541320800781 263.7713317871094 331.0456237792969 263.7934265136719 330.1279907226563 263.8168334960938 L 330.1025390625 262.817138671875 C 332.7703552246094 262.7492065429688 335.463623046875 262.6896667480469 338.1076354980469 262.6404113769531 Z M 328.1024475097656 262.8697509765625 L 328.129638671875 263.869384765625 C 326.7451171875 263.906982421875 325.3611450195313 263.9469909667969 323.9779663085938 263.9893493652344 C 323.9779663085938 263.9893493652344 323.9592590332031 263.9899291992188 323.9592590332031 263.9899291992188 C 323.8963012695313 263.9918518066406 323.8335571289063 263.9937744140625 323.7705993652344 263.9957275390625 C 323.748779296875 263.9963989257813 323.712158203125 263.9974975585938 323.6903381347656 263.9981689453125 C 323.6543884277344 263.9992980957031 323.6181640625 264.0004272460938 323.5822143554688 264.0015258789063 C 323.5276489257813 264.0032043457031 323.4765319824219 264.0047912597656 323.4219970703125 264.0065002441406 C 323.3945007324219 264.0073547363281 323.3673706054688 264.0081787109375 323.3398742675781 264.009033203125 C 323.2744445800781 264.0110778808594 323.2215881347656 264.0127258300781 323.1561279296875 264.0147705078125 C 323.1376037597656 264.0153503417969 323.119140625 264.0159301757813 323.1006164550781 264.0165100097656 C 323.0242614746094 264.0189208984375 322.9682006835938 264.0206909179688 322.891845703125 264.0230712890625 C 322.8822631835938 264.0233764648438 322.8724365234375 264.023681640625 322.8628540039063 264.0239868164063 C 321.9576416015625 264.0525512695313 321.0375671386719 264.0825805664063 320.1329956054688 264.1131286621094 L 320.0992736816406 263.1136779785156 C 322.7660827636719 263.023681640625 325.458740234375 262.9415893554688 328.1024475097656 262.8697509765625 Z M 318.0975341796875 263.1829528808594 L 318.1329040527344 264.1823120117188 C 317.5556335449219 264.2026977539063 317.0009155273438 264.2227172851563 316.4239196777344 264.2439575195313 C 316.3910522460938 264.2451477050781 316.3580017089844 264.2463684082031 316.3251037597656 264.2475891113281 C 316.2924499511719 264.248779296875 316.2362365722656 264.2508544921875 316.2035827636719 264.2520751953125 C 316.1375122070313 264.2545166015625 316.0713806152344 264.2569580078125 316.0053100585938 264.2593994140625 C 315.9944152832031 264.2598266601563 315.9908752441406 264.2599487304688 315.97998046875 264.2603454589844 C 315.155029296875 264.2909851074219 314.33056640625 264.3224182128906 313.5062255859375 264.3546447753906 C 313.5062255859375 264.3546447753906 313.5043640136719 264.354736328125 313.5043640136719 264.354736328125 C 313.4287414550781 264.3576965332031 313.3531188964844 264.3606567382813 313.2774963378906 264.3636169433594 C 313.2557678222656 264.3644714355469 313.2372436523438 264.3652038574219 313.2154846191406 264.3660583496094 C 313.1676940917969 264.3679504394531 313.1200256347656 264.3698120117188 313.0722351074219 264.3717041015625 C 313.0178527832031 264.3738403320313 312.9845886230469 264.3751831054688 312.9302062988281 264.3773193359375 C 312.9077758789063 264.3782043457031 312.8852844238281 264.3790893554688 312.8628234863281 264.3800048828125 C 312.7867126464844 264.3829956054688 312.7162780761719 264.3858032226563 312.64013671875 264.3888244628906 C 312.63720703125 264.3889465332031 312.6343383789063 264.3890686035156 312.6314392089844 264.3891906738281 C 311.8050231933594 264.4220886230469 310.9640808105469 264.4563903808594 310.1383666992188 264.4909057617188 L 310.0966491699219 263.4917602539063 C 312.7621765136719 263.3804016113281 315.4541015625 263.2764892578125 318.0975341796875 263.1829528808594 Z M 308.0968322753906 263.5769348144531 L 308.1401062011719 264.575927734375 C 305.47216796875 264.6916809082031 302.8081970214844 264.8155822753906 300.1485595703125 264.9473876953125 L 300.0989990234375 263.9486694335938 C 302.7630920410156 263.8165893554688 305.4539184570313 263.6914978027344 308.0968322753906 263.5769348144531 Z M 298.1017150878906 264.0492248535156 L 298.1527404785156 265.0478515625 C 296.9510498046875 265.1092529296875 295.7505493164063 265.1722412109375 294.5508117675781 265.2368469238281 C 294.5292053222656 265.2380065917969 294.5037231445313 265.2393798828125 294.4821166992188 265.2405395507813 C 294.4418029785156 265.2427062988281 294.4018859863281 265.244873046875 294.361572265625 265.2470397949219 C 294.3075866699219 265.2499389648438 294.2379760742188 265.2537231445313 294.1839904785156 265.2566223144531 C 294.1703491210938 265.2573852539063 294.1564636230469 265.2581176757813 294.1427917480469 265.2588500976563 C 294.0672302246094 265.262939453125 293.9817810058594 265.267578125 293.90625 265.2716979980469 C 293.9059143066406 265.2716979980469 293.9054870605469 265.271728515625 293.9051818847656 265.2717590332031 C 292.8366394042969 265.3297729492188 291.7671813964844 265.38916015625 290.7002868652344 265.4496765136719 C 290.6778869628906 265.450927734375 290.6553649902344 265.4522094726563 290.6329956054688 265.4534912109375 C 290.5898742675781 265.4559326171875 290.5382080078125 265.4588623046875 290.4950866699219 265.4613037109375 C 290.3851013183594 265.4675598144531 290.27490234375 265.4738464355469 290.1649169921875 265.4801330566406 L 290.10791015625 264.4817504882813 C 292.770263671875 264.3296813964844 295.4598083496094 264.1841125488281 298.1017150878906 264.0492248535156 Z M 288.1074523925781 264.5974731445313 L 288.166015625 265.5957641601563 C 287.7244567871094 265.6216430664063 287.2828979492188 265.6477355957031 286.8416442871094 265.6740417480469 C 286.787841796875 265.67724609375 286.7597045898438 265.6789245605469 286.7059326171875 265.68212890625 C 286.6869201660156 265.6832580566406 286.6681213378906 265.6843872070313 286.6490783691406 265.6855163574219 C 284.4873657226563 265.8146057128906 282.3344421386719 265.9483642578125 280.1803588867188 266.0871887207031 L 280.1160888671875 265.0892333984375 C 282.7771911621094 264.9177551269531 285.4659118652344 264.7523193359375 288.1074523925781 264.5974731445313 Z M 278.1183776855469 265.2193908691406 L 278.18408203125 266.21728515625 C 275.7756042480469 266.3759460449219 273.3658752441406 266.5410766601563 270.9681091308594 266.7113952636719 C 270.9470520019531 266.712890625 270.9259643554688 266.7143859863281 270.9049072265625 266.7158813476563 C 270.8622741699219 266.7189025878906 270.8271789550781 266.7214050292969 270.7845764160156 266.7244262695313 C 270.5906066894531 266.7382202148438 270.3966979980469 266.7520751953125 270.2028198242188 266.7659301757813 L 270.1313781738281 265.7684936523438 C 272.7906494140625 265.578125 275.4778137207031 265.3934020996094 278.1183776855469 265.2193908691406 Z M 268.1375427246094 265.9126586914063 L 268.2103576660156 266.9099426269531 C 267.6774291992188 266.9488525390625 267.1448364257813 266.988037109375 266.6124877929688 267.0274963378906 C 266.6124877929688 267.0274963378906 266.5966186523438 267.0286560058594 266.5966186523438 267.0286560058594 C 266.5361328125 267.0331420898438 266.4756469726563 267.0376281738281 266.4151916503906 267.0421142578125 C 266.3514709472656 267.0468444824219 266.2763061523438 267.0524291992188 266.2125549316406 267.0571899414063 C 266.2122497558594 267.0571899414063 266.2118835449219 267.0572204589844 266.2115478515625 267.0572509765625 C 264.22509765625 267.2050476074219 262.2122802734375 267.3589782714844 260.2342834472656 267.5142822265625 L 260.156005859375 266.5173034667969 C 262.81298828125 266.3086547851563 265.4984436035156 266.105224609375 268.1375427246094 265.9126586914063 Z M 258.15771484375 266.6755676269531 L 258.2373657226563 267.6723937988281 C 257.46484375 267.734130859375 256.6932678222656 267.7964172363281 255.9221496582031 267.8592529296875 C 255.8799743652344 267.8626708984375 255.828369140625 267.8668823242188 255.7861938476563 267.8703308105469 C 255.7610168457031 267.8723754882813 255.736083984375 267.8744201660156 255.7109069824219 267.87646484375 C 255.6371154785156 267.8825073242188 255.5867004394531 267.8865966796875 255.5129089355469 267.8926391601563 C 255.5000915527344 267.8936767578125 255.4872436523438 267.8947448730469 255.4744262695313 267.8957824707031 C 253.7354431152344 268.0380249023438 251.9952392578125 268.1834106445313 250.2635498046875 268.3311157226563 L 250.1785583496094 267.3347778320313 C 252.8343505859375 267.1082153320313 255.5190124511719 266.8864135742188 258.15771484375 266.6755676269531 Z M 248.1839904785156 267.5062255859375 L 248.2703552246094 268.50244140625 C 245.5985717773438 268.73388671875 242.9551391601563 268.969970703125 240.3021850585938 269.2138366699219 L 240.2106323242188 268.2180480957031 C 242.8641967773438 267.97412109375 245.5467224121094 267.7346801757813 248.1839904785156 267.5062255859375 Z M 238.2218322753906 268.4021301269531 L 238.3146362304688 269.3977661132813 C 235.6497192382813 269.6461181640625 232.9949951171875 269.9005737304688 230.3510131835938 270.1605834960938 L 230.2530822753906 269.1654052734375 C 232.9046325683594 268.9045715332031 235.5856323242188 268.6477661132813 238.2218322753906 268.4021301269531 Z M 228.257080078125 269.363037109375 L 228.3561706542969 270.3581237792969 C 225.6930847167969 270.6234436035156 223.0366821289063 270.8948974609375 220.3965454101563 271.1712646484375 L 220.2924499511719 270.1766662597656 C 222.9421691894531 269.8992919921875 225.6219177246094 269.6255798339844 228.257080078125 269.363037109375 Z M 218.3032836914063 270.38623046875 L 218.4085388183594 271.3805847167969 C 215.7454528808594 271.6626586914063 213.0945434570313 271.9501342773438 210.4567260742188 272.2425842285156 L 210.3465576171875 271.2486572265625 C 212.9931945800781 270.955322265625 215.6701965332031 270.6651306152344 218.3032836914063 270.38623046875 Z M 208.3588256835938 271.47021484375 L 208.4702758789063 272.4640502929688 C 207.2241821289063 272.6036987304688 205.9857788085938 272.7439270019531 204.7456665039063 272.8857421875 C 204.7374267578125 272.8866882324219 204.728759765625 272.8876953125 204.7205200195313 272.8886108398438 C 204.6604614257813 272.8954772949219 204.5902709960938 272.9035339355469 204.5302734375 272.910400390625 C 204.47900390625 272.916259765625 204.4280395507813 272.9220886230469 204.3767700195313 272.927978515625 C 204.3667602539063 272.9291381835938 204.3388671875 272.9323120117188 204.328857421875 272.9334716796875 C 203.0556640625 273.0793762207031 201.7859497070313 273.2263793945313 200.519287109375 273.3744812011719 L 200.403076171875 272.3813171386719 C 203.0490112304688 272.0719604492188 205.7257080078125 271.7654113769531 208.3588256835938 271.47021484375 Z M 198.4134521484375 272.6151123046875 L 198.5308227539063 273.6082153320313 C 198.516357421875 273.6099243164063 198.501953125 273.6116333007813 198.4874877929688 273.6133422851563 C 198.4775390625 273.614501953125 198.4692993164063 273.615478515625 198.4593505859375 273.6166687011719 C 198.437255859375 273.6192626953125 198.4149780273438 273.6218872070313 198.3928833007813 273.62451171875 C 196.2017211914063 273.883544921875 194.01806640625 274.1460266113281 191.847412109375 274.4111328125 C 191.427490234375 274.4624328613281 191.0079345703125 274.5138244628906 190.5888061523438 274.5653076171875 L 190.466796875 273.57275390625 C 193.1091918945313 273.2481384277344 195.7828369140625 272.9258422851563 198.4134521484375 272.6151123046875 Z M 188.4869384765625 273.8173217773438 L 188.610107421875 274.8096618652344 C 187.9845581054688 274.8872680664063 187.3652954101563 274.9644470214844 186.7415771484375 275.0425109863281 C 186.7406005859375 275.0426330566406 186.739990234375 275.0426940917969 186.739013671875 275.0428161621094 C 184.7021484375 275.2977600097656 182.6875610351563 275.5535888671875 180.6704711914063 275.8132934570313 L 180.5428466796875 274.8214721679688 C 183.183837890625 274.4815063476563 185.8566284179688 274.1435852050781 188.4869384765625 273.8173217773438 Z M 178.5531616210938 275.0787658691406 L 178.6820678710938 276.0704040527344 C 177.792724609375 276.1859436035156 176.9054565429688 276.3019104003906 176.0200805664063 276.4182739257813 C 176.010498046875 276.4195556640625 176.010009765625 276.4196166992188 176.00048828125 276.4208679199219 C 175.9783325195313 276.4237976074219 175.9564819335938 276.4266662597656 175.934326171875 276.4295654296875 C 174.2013549804688 276.657470703125 172.468017578125 276.8880615234375 170.7507934570313 277.1190185546875 L 170.617431640625 276.1279296875 C 173.2551879882813 275.7731323242188 175.9251708984375 275.4201354980469 178.5531616210938 275.0787658691406 Z M 168.6400756835938 276.39501953125 L 168.7744750976563 277.3860168457031 C 167.9898681640625 277.492431640625 167.194091796875 277.6009216308594 166.4129638671875 277.7079467773438 C 166.4092407226563 277.7084655761719 166.4053344726563 277.708984375 166.401611328125 277.7095031738281 C 166.3734130859375 277.71337890625 166.3261108398438 277.7198486328125 166.2978515625 277.7237243652344 C 166.284423828125 277.7255554199219 166.2713623046875 277.7273559570313 166.2579345703125 277.7291870117188 C 166.2391357421875 277.7317810058594 166.2158813476563 277.7349548339844 166.197021484375 277.737548828125 C 166.1739501953125 277.74072265625 166.15087890625 277.7438659667969 166.1278076171875 277.7470397949219 C 166.1089477539063 277.7496337890625 166.1041259765625 277.7502746582031 166.0853271484375 277.7528686523438 C 165.3468017578125 277.8541870117188 164.6098022460938 277.9557800292969 163.8743896484375 278.0576171875 C 163.8556518554688 278.0602111816406 163.8543701171875 278.0603942871094 163.8356323242188 278.06298828125 C 163.8154907226563 278.0657653808594 163.7951049804688 278.068603515625 163.7749633789063 278.0713806152344 C 163.7562255859375 278.073974609375 163.7233276367188 278.0785217285156 163.70458984375 278.0811157226563 C 163.6934814453125 278.0826721191406 163.6824340820313 278.0841979980469 163.6713256835938 278.0857238769531 C 163.6432495117188 278.0896301269531 163.58935546875 278.0971069335938 163.561279296875 278.1009826660156 C 163.5604858398438 278.1011047363281 163.5599975585938 278.1011657714844 163.5592041015625 278.1012878417969 C 162.66064453125 278.2258605957031 161.7430419921875 278.3537902832031 160.8492431640625 278.4790954589844 L 160.71044921875 277.48876953125 C 163.3455200195313 277.119384765625 166.013427734375 276.7514038085938 168.6400756835938 276.39501953125 Z M 158.72265625 277.7685852050781 L 158.862548828125 278.7587585449219 C 156.2012329101563 279.1348876953125 153.5609130859375 279.5140686035156 150.9437255859375 279.8957214355469 L 150.7994384765625 278.9062194824219 C 153.4317016601563 278.5223083496094 156.0975341796875 278.1395874023438 158.72265625 277.7685852050781 Z M 148.8270874023438 279.1948547363281 L 148.9724731445313 280.1842651367188 C 146.3121337890625 280.5751342773438 143.6669921875 280.9698181152344 141.05517578125 281.3651733398438 L 140.9054565429688 280.3764038085938 C 143.53662109375 279.9781188964844 146.2018432617188 279.58056640625 148.8270874023438 279.1948547363281 Z M 138.9227294921875 280.6776733398438 L 139.0734252929688 281.6662292480469 C 136.5311889648438 282.0538940429688 134.0127563476563 282.4433288574219 131.5192260742188 282.8341064453125 C 131.4061279296875 282.851806640625 131.2841796875 282.8709411621094 131.1712036132813 282.888671875 L 131.0161743164063 281.9007568359375 C 133.6415405273438 281.4888610839844 136.3017578125 281.0773010253906 138.9227294921875 280.6776733398438 Z M 129.0422973632813 282.2114868164063 L 129.1983642578125 283.1992797851563 C 128.5758666992188 283.297607421875 127.9671020507813 283.3941040039063 127.3477783203125 283.4925842285156 C 125.3115234375 283.8163452148438 123.2925415039063 284.1408386230469 121.2915649414063 284.4657592773438 L 121.1312866210938 283.478759765625 C 123.7572631835938 283.0523071289063 126.4188842773438 282.6259460449219 129.0422973632813 282.2114868164063 Z M 119.15966796875 283.7999572753906 L 119.3209838867188 284.786865234375 C 116.8673095703125 285.1879272460938 114.44677734375 285.588623046875 112.049072265625 285.9902038574219 C 112.0446166992188 285.9909362792969 112.0403442382813 285.9916687011719 112.035888671875 285.992431640625 C 112.0194702148438 285.9951782226563 111.9951171875 285.9992370605469 111.9786987304688 286.0019836425781 C 111.7962646484375 286.0325622558594 111.614013671875 286.0631103515625 111.431884765625 286.0936584472656 L 111.2664794921875 285.1074829101563 C 113.8855590820313 284.6678466796875 116.5411987304688 284.2279357910156 119.15966796875 283.7999572753906 Z M 109.2853393554688 285.4410400390625 L 109.4520263671875 286.4270324707031 C 109.0711669921875 286.4913635253906 108.691162109375 286.5556945800781 108.3118286132813 286.6200256347656 C 107.0064697265625 286.8413696289063 105.7002563476563 287.0642700195313 104.4127197265625 287.2853698730469 C 103.4613647460938 287.44873046875 102.5149536132813 287.6119689941406 101.5734252929688 287.7751159667969 L 101.4027099609375 286.7898559570313 C 104.0172119140625 286.3367614746094 106.6692504882813 285.8829345703125 109.2853393554688 285.4410400390625 Z M 99.427978515625 287.1331176757813 L 99.5997314453125 288.1182250976563 C 98.67242431640625 288.2799377441406 97.75030517578125 288.4414978027344 96.8330078125 288.6028747558594 C 96.8018798828125 288.6083374023438 96.7738037109375 288.61328125 96.74273681640625 288.6187438964844 C 96.740478515625 288.619140625 96.73822021484375 288.6195373535156 96.7359619140625 288.6199340820313 C 95.05047607421875 288.9165344238281 93.36956787109375 289.2147521972656 91.71844482421875 289.5099182128906 L 91.54248046875 288.5254821777344 C 94.15655517578125 288.0582275390625 96.8095703125 287.5897521972656 99.427978515625 287.1331176757813 Z M 89.58355712890625 288.8767700195313 L 89.76055908203125 289.8609313964844 C 88.90704345703125 290.0144958496094 88.05841064453125 290.167724609375 87.2144775390625 290.3207397460938 C 87.1995849609375 290.3234558105469 87.17437744140625 290.3280029296875 87.159423828125 290.3307189941406 C 87.14959716796875 290.33251953125 87.1397705078125 290.3342895507813 87.1298828125 290.3360595703125 C 85.3551025390625 290.6578979492188 83.60833740234375 290.977294921875 81.87689208984375 291.2963562011719 L 81.69561767578125 290.3129577636719 C 84.308837890625 289.8313903808594 86.962646484375 289.3482055664063 89.58355712890625 288.8767700195313 Z M 79.73974609375 290.6744995117188 L 79.9219970703125 291.6576843261719 C 77.24200439453125 292.1544799804688 74.6160888671875 292.6473999023438 72.04644775390625 293.1353149414063 L 71.85992431640625 292.1528625488281 C 74.46826171875 291.6575927734375 77.11944580078125 291.1602172851563 79.73974609375 290.6744995117188 Z M 69.9063720703125 292.5248413085938 L 70.093994140625 293.5071411132813 C 69.35626220703125 293.6480102539063 68.62933349609375 293.7873229980469 67.90118408203125 293.9273071289063 C 65.97576904296875 294.2974548339844 64.08392333984375 294.6643676757813 62.22711181640625 295.0274963378906 L 62.03515625 294.0461120605469 C 64.63800048828125 293.5371398925781 67.2862548828125 293.0252990722656 69.9063720703125 292.5248413085938 Z M 60.0848388671875 294.4285888671875 L 60.27789306640625 295.4097595214844 C 59.7088623046875 295.5216979980469 59.14337158203125 295.6332397460938 58.58111572265625 295.744384765625 C 57.83306884765625 295.8923034667969 57.0941162109375 296.0388793945313 56.358154296875 296.1853637695313 C 56.350830078125 296.1868286132813 56.343505859375 296.1882629394531 56.336181640625 296.1897277832031 C 56.32366943359375 296.1922302246094 56.31085205078125 296.1947937011719 56.29833984375 296.197265625 C 56.28778076171875 296.1993713378906 56.27685546875 296.2015380859375 56.26629638671875 296.2036437988281 C 56.24761962890625 296.2073669433594 56.2401123046875 296.2088623046875 56.221435546875 296.2125854492188 C 55.21612548828125 296.4127502441406 54.22222900390625 296.6115417480469 53.23992919921875 296.8088989257813 C 52.96600341796875 296.8639221191406 52.697021484375 296.9180297851563 52.4249267578125 296.9728393554688 L 52.22747802734375 295.9924926757813 C 54.82208251953125 295.4699401855469 57.4656982421875 294.9437561035156 60.0848388671875 294.4285888671875 Z M 50.26019287109375 296.3899536132813 L 50.458740234375 297.3700256347656 C 49.38189697265625 297.5881652832031 48.325927734375 297.8031616210938 47.2789306640625 298.017333984375 C 45.69219970703125 298.3418884277344 44.13983154296875 298.6617736816406 42.62298583984375 298.9765014648438 L 42.4197998046875 297.9974060058594 C 45.003662109375 297.4613037109375 47.64154052734375 296.9205017089844 50.26019287109375 296.3899536132813 Z M 40.4608154296875 298.4051208496094 L 40.66510009765625 299.3839416503906 C 39.25604248046875 299.6780700683594 37.87933349609375 299.9674072265625 36.5352783203125 300.2516174316406 C 35.27447509765625 300.5182189941406 34.0479736328125 300.7791137695313 32.84552001953125 301.0363464355469 L 32.6363525390625 300.0585021972656 C 35.20684814453125 299.5085754394531 37.83935546875 298.9523010253906 40.4608154296875 298.4051208496094 Z M 30.66571044921875 300.4813842773438 L 30.87615966796875 301.4589538574219 C 29.96160888671875 301.6558532714844 29.06536865234375 301.8497009277344 28.18756103515625 302.0403747558594 C 28.18292236328125 302.0413513183594 28.18011474609375 302.0419616699219 28.175537109375 302.04296875 C 28.16192626953125 302.0459289550781 28.1483154296875 302.0488891601563 28.13470458984375 302.0518493652344 C 26.374267578125 302.4342651367188 24.68548583984375 302.804443359375 23.07672119140625 303.159912109375 L 22.86090087890625 302.1835021972656 C 25.41082763671875 301.6200256347656 28.0367431640625 301.0473937988281 30.66571044921875 300.4813842773438 Z M 20.89056396484375 302.6203918457031 L 21.10772705078125 303.5964965820313 C 18.23138427734375 304.2364807128906 15.625244140625 304.8260498046875 13.30426025390625 305.3578491210938 L 13.08099365234375 304.3831176757813 C 15.60052490234375 303.8058471679688 18.22808837890625 303.2127685546875 20.89056396484375 302.6203918457031 Z M 11.1270751953125 304.8325805664063 L 11.3521728515625 305.8069458007813 C 8.06793212890625 306.5655822753906 5.45654296875 307.1848449707031 3.5704345703125 307.6382141113281 L 3.33673095703125 306.6659545898438 C 5.7198486328125 306.0930480957031 8.3408203125 305.4762268066406 11.1270751953125 304.8325805664063 Z M 0 302.2028503417969 L 1 302.2028503417969 L 1 307.2326965332031 C 1.1234130859375 307.2024536132813 1.25567626953125 307.1701049804688 1.39678955078125 307.1356811523438 L 1.6339111328125 308.1071166992188 C 1.606689453125 308.11376953125 1.579833984375 308.1203308105469 1.55322265625 308.1268005371094 C 1.34893798828125 308.1766967773438 1.16455078125 308.2218933105469 1 308.2622985839844 L 1 308.2622985839844 C 0.33905029296875 308.4246826171875 0 308.5098571777344 0 308.5098571777344 C 0 308.5098571777344 0 308.5098571777344 0 308.5098571777344 L 0 302.2028503417969 Z M 0 292.2028503417969 L 1 292.2028503417969 L 1 300.2028503417969 L 0 300.2028503417969 L 0 292.2028503417969 Z M 0 282.2028503417969 L 1 282.2028503417969 L 1 290.2028503417969 L 0 290.2028503417969 L 0 282.2028503417969 Z M 0 272.2028503417969 L 1 272.2028503417969 L 1 280.2028503417969 L 0 280.2028503417969 L 0 272.2028503417969 Z M 0 262.2028503417969 L 1 262.2028503417969 L 1 270.2028503417969 L 0 270.2028503417969 L 0 262.2028503417969 Z M 0 252.2028503417969 L 1 252.2028503417969 L 1 260.2028503417969 L 0 260.2028503417969 L 0 252.2028503417969 Z M 0 242.2028503417969 L 1 242.2028503417969 L 1 250.2028503417969 L 0 250.2028503417969 L 0 242.2028503417969 Z M 0 232.2028503417969 L 1 232.2028503417969 L 1 240.2028503417969 L 0 240.2028503417969 L 0 232.2028503417969 Z M 0 222.2028503417969 L 1 222.2028503417969 L 1 230.2028503417969 L 0 230.2028503417969 L 0 222.2028503417969 Z M 0 212.2028503417969 L 1 212.2028503417969 L 1 220.2028503417969 L 0 220.2028503417969 L 0 212.2028503417969 Z M 0 202.2028503417969 L 1 202.2028503417969 L 1 210.2028503417969 L 0 210.2028503417969 L 0 202.2028503417969 Z M 0 192.2028503417969 L 1 192.2028503417969 L 1 200.2028503417969 L 0 200.2028503417969 L 0 192.2028503417969 Z M 0 182.2028503417969 L 1 182.2028503417969 L 1 190.2028503417969 L 0 190.2028503417969 L 0 182.2028503417969 Z M 0 172.2028503417969 L 1 172.2028503417969 L 1 180.2028503417969 L 0 180.2028503417969 L 0 172.2028503417969 Z M 0 162.2028503417969 L 1 162.2028503417969 L 1 170.2028503417969 L 0 170.2028503417969 L 0 162.2028503417969 Z M 0 152.2028503417969 L 1 152.2028503417969 L 1 160.2028503417969 L 0 160.2028503417969 L 0 152.2028503417969 Z M 0 142.2028503417969 L 1 142.2028503417969 L 1 150.2028503417969 L 0 150.2028503417969 L 0 142.2028503417969 Z M 0 132.2028503417969 L 1 132.2028503417969 L 1 140.2028503417969 L 0 140.2028503417969 L 0 132.2028503417969 Z M 0 122.2028503417969 L 1 122.2028503417969 L 1 130.2028503417969 L 0 130.2028503417969 L 0 122.2028503417969 Z M 0 112.2028503417969 L 1 112.2028503417969 L 1 120.2028503417969 L 0 120.2028503417969 L 0 112.2028503417969 Z M 0 102.2028503417969 L 1 102.2028503417969 L 1 110.2028503417969 L 0 110.2028503417969 L 0 102.2028503417969 Z M 0 92.20285034179688 L 1 92.20285034179688 L 1 100.2028503417969 L 0 100.2028503417969 L 0 92.20285034179688 Z M 0 82.20285034179688 L 1 82.20285034179688 L 1 90.20285034179688 L 0 90.20285034179688 L 0 82.20285034179688 Z M 0 72.20285034179688 L 1 72.20285034179688 L 1 80.20285034179688 L 0 80.20285034179688 L 0 72.20285034179688 Z M 0 62.20285034179688 L 1 62.20285034179688 L 1 70.20285034179688 L 0 70.20285034179688 L 0 62.20285034179688 Z M 0 52.20285034179688 L 1 52.20285034179688 L 1 60.20285034179688 L 0 60.20285034179688 L 0 52.20285034179688 Z M 0 42.20285034179688 L 1 42.20285034179688 L 1 50.20285034179688 L 0 50.20285034179688 L 0 42.20285034179688 Z M 0 32.20285034179688 L 1 32.20285034179688 L 1 40.20285034179688 L 0 40.20285034179688 L 0 32.20285034179688 Z M 0 22.20285034179688 L 1 22.20285034179688 L 1 30.20285034179688 L 0 30.20285034179688 L 0 22.20285034179688 Z M 0 12.20285034179688 L 1 12.20285034179688 L 1 20.20285034179688 L 0 20.20285034179688 L 0 12.20285034179688 Z M 0 2.202850341796875 L 1 2.202850341796875 L 1 10.20285034179688 L 0 10.20285034179688 L 0 2.202850341796875 Z M 0 3.0517578125e-05 L 8 3.0517578125e-05 L 8 1.000030517578125 L 0 1.000030517578125 L 0 3.0517578125e-05 Z" stroke="none" fill="#2b1f1d"/></g></svg>